<svg width="86" height="16" viewBox="0 0 86 16" fill="none" xmlns="http://www.w3.org/2000/svg">
<path d="M3.39844 12H1.02344L1.03906 10.7734H3.39844C4.21094 10.7734 4.88802 10.6042 5.42969 10.2656C5.97135 9.92188 6.3776 9.44271 6.64844 8.82812C6.92448 8.20833 7.0625 7.48438 7.0625 6.65625V5.96094C7.0625 5.3099 6.98438 4.73177 6.82812 4.22656C6.67188 3.71615 6.44271 3.28646 6.14062 2.9375C5.83854 2.58333 5.46875 2.3151 5.03125 2.13281C4.59896 1.95052 4.10156 1.85938 3.53906 1.85938H0.976562V0.625H3.53906C4.28385 0.625 4.96354 0.75 5.57812 1C6.19271 1.24479 6.72135 1.60156 7.16406 2.07031C7.61198 2.53385 7.95573 3.09635 8.19531 3.75781C8.4349 4.41406 8.55469 5.15365 8.55469 5.97656V6.65625C8.55469 7.47917 8.4349 8.22135 8.19531 8.88281C7.95573 9.53906 7.60938 10.099 7.15625 10.5625C6.70833 11.026 6.16667 11.3828 5.53125 11.6328C4.90104 11.8776 4.1901 12 3.39844 12ZM1.82812 0.625V12H0.320312V0.625H1.82812ZM14.1094 12.1562C13.5208 12.1562 12.987 12.0573 12.5078 11.8594C12.0339 11.6562 11.625 11.3724 11.2812 11.0078C10.9427 10.6432 10.6823 10.2109 10.5 9.71094C10.3177 9.21094 10.2266 8.66406 10.2266 8.07031V7.74219C10.2266 7.05469 10.3281 6.44271 10.5312 5.90625C10.7344 5.36458 11.0104 4.90625 11.3594 4.53125C11.7083 4.15625 12.1042 3.8724 12.5469 3.67969C12.9896 3.48698 13.4479 3.39062 13.9219 3.39062C14.526 3.39062 15.0469 3.49479 15.4844 3.70312C15.9271 3.91146 16.2891 4.20312 16.5703 4.57812C16.8516 4.94792 17.0599 5.38542 17.1953 5.89062C17.3307 6.39062 17.3984 6.9375 17.3984 7.53125V8.17969H11.0859V7H15.9531V6.89062C15.9323 6.51562 15.8542 6.15104 15.7188 5.79688C15.5885 5.44271 15.3802 5.15104 15.0938 4.92188C14.8073 4.69271 14.4167 4.57812 13.9219 4.57812C13.5938 4.57812 13.2917 4.64844 13.0156 4.78906C12.7396 4.92448 12.5026 5.1276 12.3047 5.39844C12.1068 5.66927 11.9531 6 11.8438 6.39062C11.7344 6.78125 11.6797 7.23177 11.6797 7.74219V8.07031C11.6797 8.47135 11.7344 8.84896 11.8438 9.20312C11.9583 9.55208 12.1224 9.85938 12.3359 10.125C12.5547 10.3906 12.8177 10.599 13.125 10.75C13.4375 10.901 13.7917 10.9766 14.1875 10.9766C14.6979 10.9766 15.1302 10.8724 15.4844 10.6641C15.8385 10.4557 16.1484 10.1771 16.4141 9.82812L17.2891 10.5234C17.1068 10.7995 16.875 11.0625 16.5938 11.3125C16.3125 11.5625 15.9661 11.7656 15.5547 11.9219C15.1484 12.0781 14.6667 12.1562 14.1094 12.1562ZM24.0078 9.75781C24.0078 9.54948 23.9609 9.35677 23.8672 9.17969C23.7786 8.9974 23.5938 8.83333 23.3125 8.6875C23.0365 8.53646 22.6198 8.40625 22.0625 8.29688C21.5938 8.19792 21.1693 8.08073 20.7891 7.94531C20.4141 7.8099 20.0938 7.64583 19.8281 7.45312C19.5677 7.26042 19.3672 7.03385 19.2266 6.77344C19.0859 6.51302 19.0156 6.20833 19.0156 5.85938C19.0156 5.52604 19.0885 5.21094 19.2344 4.91406C19.3854 4.61719 19.5964 4.35417 19.8672 4.125C20.1432 3.89583 20.474 3.71615 20.8594 3.58594C21.2448 3.45573 21.6745 3.39062 22.1484 3.39062C22.8255 3.39062 23.4036 3.51042 23.8828 3.75C24.362 3.98958 24.7292 4.3099 24.9844 4.71094C25.2396 5.10677 25.3672 5.54688 25.3672 6.03125H23.9219C23.9219 5.79688 23.8516 5.57031 23.7109 5.35156C23.5755 5.1276 23.375 4.94271 23.1094 4.79688C22.849 4.65104 22.5286 4.57812 22.1484 4.57812C21.7474 4.57812 21.4219 4.64062 21.1719 4.76562C20.9271 4.88542 20.7474 5.03906 20.6328 5.22656C20.5234 5.41406 20.4688 5.61198 20.4688 5.82031C20.4688 5.97656 20.4948 6.11719 20.5469 6.24219C20.6042 6.36198 20.7031 6.47396 20.8438 6.57812C20.9844 6.67708 21.1823 6.77083 21.4375 6.85938C21.6927 6.94792 22.0182 7.03646 22.4141 7.125C23.1068 7.28125 23.6771 7.46875 24.125 7.6875C24.5729 7.90625 24.9062 8.17448 25.125 8.49219C25.3438 8.8099 25.4531 9.19531 25.4531 9.64844C25.4531 10.0182 25.375 10.3568 25.2188 10.6641C25.0677 10.9714 24.8464 11.237 24.5547 11.4609C24.2682 11.6797 23.9245 11.8516 23.5234 11.9766C23.1276 12.0964 22.6823 12.1562 22.1875 12.1562C21.4427 12.1562 20.8125 12.0234 20.2969 11.7578C19.7812 11.4922 19.3906 11.1484 19.125 10.7266C18.8594 10.3047 18.7266 9.85938 18.7266 9.39062H20.1797C20.2005 9.78646 20.3151 10.1016 20.5234 10.3359C20.7318 10.5651 20.987 10.7292 21.2891 10.8281C21.5911 10.9219 21.8906 10.9688 22.1875 10.9688C22.5833 10.9688 22.9141 10.9167 23.1797 10.8125C23.4505 10.7083 23.6562 10.5651 23.7969 10.3828C23.9375 10.2005 24.0078 9.99219 24.0078 9.75781ZM28.9219 3.54688V12H27.4688V3.54688H28.9219ZM27.3594 1.30469C27.3594 1.07031 27.4297 0.872396 27.5703 0.710938C27.7161 0.549479 27.9297 0.46875 28.2109 0.46875C28.487 0.46875 28.6979 0.549479 28.8438 0.710938C28.9948 0.872396 29.0703 1.07031 29.0703 1.30469C29.0703 1.52865 28.9948 1.72135 28.8438 1.88281C28.6979 2.03906 28.487 2.11719 28.2109 2.11719C27.9297 2.11719 27.7161 2.03906 27.5703 1.88281C27.4297 1.72135 27.3594 1.52865 27.3594 1.30469ZM36.7188 3.54688H38.0312V11.8203C38.0312 12.5651 37.8802 13.2005 37.5781 13.7266C37.276 14.2526 36.8542 14.651 36.3125 14.9219C35.776 15.1979 35.1562 15.3359 34.4531 15.3359C34.1615 15.3359 33.8177 15.2891 33.4219 15.1953C33.0312 15.1068 32.6458 14.9531 32.2656 14.7344C31.8906 14.5208 31.5755 14.2318 31.3203 13.8672L32.0781 13.0078C32.4323 13.4349 32.8021 13.7318 33.1875 13.8984C33.5781 14.0651 33.9635 14.1484 34.3438 14.1484C34.8021 14.1484 35.1979 14.0625 35.5312 13.8906C35.8646 13.7188 36.1224 13.4635 36.3047 13.125C36.4922 12.7917 36.5859 12.3802 36.5859 11.8906V5.40625L36.7188 3.54688ZM30.8984 7.86719V7.70312C30.8984 7.05729 30.974 6.47135 31.125 5.94531C31.2812 5.41406 31.5026 4.95833 31.7891 4.57812C32.0807 4.19792 32.4323 3.90625 32.8438 3.70312C33.2552 3.49479 33.7188 3.39062 34.2344 3.39062C34.7656 3.39062 35.2292 3.48438 35.625 3.67188C36.026 3.85417 36.3646 4.1224 36.6406 4.47656C36.9219 4.82552 37.1432 5.2474 37.3047 5.74219C37.4661 6.23698 37.5781 6.79688 37.6406 7.42188V8.14062C37.5833 8.76042 37.4714 9.31771 37.3047 9.8125C37.1432 10.3073 36.9219 10.7292 36.6406 11.0781C36.3646 11.4271 36.026 11.6953 35.625 11.8828C35.224 12.0651 34.7552 12.1562 34.2188 12.1562C33.7135 12.1562 33.2552 12.0495 32.8438 11.8359C32.4375 11.6224 32.0885 11.3229 31.7969 10.9375C31.5052 10.5521 31.2812 10.099 31.125 9.57812C30.974 9.05208 30.8984 8.48177 30.8984 7.86719ZM32.3438 7.70312V7.86719C32.3438 8.28906 32.3854 8.6849 32.4688 9.05469C32.5573 9.42448 32.6901 9.75 32.8672 10.0312C33.0495 10.3125 33.2812 10.5339 33.5625 10.6953C33.8438 10.8516 34.1797 10.9297 34.5703 10.9297C35.0495 10.9297 35.4453 10.8281 35.7578 10.625C36.0703 10.4219 36.3177 10.1536 36.5 9.82031C36.6875 9.48698 36.8333 9.125 36.9375 8.73438V6.85156C36.8802 6.5651 36.7917 6.28906 36.6719 6.02344C36.5573 5.7526 36.4062 5.51302 36.2188 5.30469C36.0365 5.09115 35.8099 4.92188 35.5391 4.79688C35.2682 4.67188 34.9505 4.60938 34.5859 4.60938C34.1901 4.60938 33.849 4.69271 33.5625 4.85938C33.2812 5.02083 33.0495 5.24479 32.8672 5.53125C32.6901 5.8125 32.5573 6.14062 32.4688 6.51562C32.3854 6.88542 32.3438 7.28125 32.3438 7.70312ZM41.6719 5.35156V12H40.2266V3.54688H41.5938L41.6719 5.35156ZM41.3281 7.45312L40.7266 7.42969C40.7318 6.85156 40.8177 6.31771 40.9844 5.82812C41.151 5.33333 41.3854 4.90365 41.6875 4.53906C41.9896 4.17448 42.349 3.89323 42.7656 3.69531C43.1875 3.49219 43.6536 3.39062 44.1641 3.39062C44.5807 3.39062 44.9557 3.44792 45.2891 3.5625C45.6224 3.67188 45.9062 3.84896 46.1406 4.09375C46.3802 4.33854 46.5625 4.65625 46.6875 5.04688C46.8125 5.43229 46.875 5.90365 46.875 6.46094V12H45.4219V6.44531C45.4219 6.0026 45.3568 5.64844 45.2266 5.38281C45.0964 5.11198 44.9062 4.91667 44.6562 4.79688C44.4062 4.67188 44.099 4.60938 43.7344 4.60938C43.375 4.60938 43.0469 4.6849 42.75 4.83594C42.4583 4.98698 42.2057 5.19531 41.9922 5.46094C41.7839 5.72656 41.6198 6.03125 41.5 6.375C41.3854 6.71354 41.3281 7.07292 41.3281 7.45312ZM52.5781 12.1562C51.9896 12.1562 51.4557 12.0573 50.9766 11.8594C50.5026 11.6562 50.0938 11.3724 49.75 11.0078C49.4115 10.6432 49.151 10.2109 48.9688 9.71094C48.7865 9.21094 48.6953 8.66406 48.6953 8.07031V7.74219C48.6953 7.05469 48.7969 6.44271 49 5.90625C49.2031 5.36458 49.4792 4.90625 49.8281 4.53125C50.1771 4.15625 50.5729 3.8724 51.0156 3.67969C51.4583 3.48698 51.9167 3.39062 52.3906 3.39062C52.9948 3.39062 53.5156 3.49479 53.9531 3.70312C54.3958 3.91146 54.7578 4.20312 55.0391 4.57812C55.3203 4.94792 55.5286 5.38542 55.6641 5.89062C55.7995 6.39062 55.8672 6.9375 55.8672 7.53125V8.17969H49.5547V7H54.4219V6.89062C54.401 6.51562 54.3229 6.15104 54.1875 5.79688C54.0573 5.44271 53.849 5.15104 53.5625 4.92188C53.276 4.69271 52.8854 4.57812 52.3906 4.57812C52.0625 4.57812 51.7604 4.64844 51.4844 4.78906C51.2083 4.92448 50.9714 5.1276 50.7734 5.39844C50.5755 5.66927 50.4219 6 50.3125 6.39062C50.2031 6.78125 50.1484 7.23177 50.1484 7.74219V8.07031C50.1484 8.47135 50.2031 8.84896 50.3125 9.20312C50.4271 9.55208 50.5911 9.85938 50.8047 10.125C51.0234 10.3906 51.2865 10.599 51.5938 10.75C51.9062 10.901 52.2604 10.9766 52.6562 10.9766C53.1667 10.9766 53.599 10.8724 53.9531 10.6641C54.3073 10.4557 54.6172 10.1771 54.8828 9.82812L55.7578 10.5234C55.5755 10.7995 55.3438 11.0625 55.0625 11.3125C54.7812 11.5625 54.4349 11.7656 54.0234 11.9219C53.6172 12.0781 53.1354 12.1562 52.5781 12.1562ZM62.8828 10.3594V0H64.3359V12H63.0078L62.8828 10.3594ZM57.1953 7.86719V7.70312C57.1953 7.05729 57.2734 6.47135 57.4297 5.94531C57.5911 5.41406 57.8177 4.95833 58.1094 4.57812C58.4062 4.19792 58.7578 3.90625 59.1641 3.70312C59.5755 3.49479 60.0339 3.39062 60.5391 3.39062C61.0703 3.39062 61.5339 3.48438 61.9297 3.67188C62.3307 3.85417 62.6693 4.1224 62.9453 4.47656C63.2266 4.82552 63.4479 5.2474 63.6094 5.74219C63.7708 6.23698 63.8828 6.79688 63.9453 7.42188V8.14062C63.888 8.76042 63.776 9.31771 63.6094 9.8125C63.4479 10.3073 63.2266 10.7292 62.9453 11.0781C62.6693 11.4271 62.3307 11.6953 61.9297 11.8828C61.5286 12.0651 61.0599 12.1562 60.5234 12.1562C60.0286 12.1562 59.5755 12.0495 59.1641 11.8359C58.7578 11.6224 58.4062 11.3229 58.1094 10.9375C57.8177 10.5521 57.5911 10.099 57.4297 9.57812C57.2734 9.05208 57.1953 8.48177 57.1953 7.86719ZM58.6484 7.70312V7.86719C58.6484 8.28906 58.6901 8.6849 58.7734 9.05469C58.862 9.42448 58.9974 9.75 59.1797 10.0312C59.362 10.3125 59.5938 10.5339 59.875 10.6953C60.1562 10.8516 60.4922 10.9297 60.8828 10.9297C61.362 10.9297 61.7552 10.8281 62.0625 10.625C62.375 10.4219 62.625 10.1536 62.8125 9.82031C63 9.48698 63.1458 9.125 63.25 8.73438V6.85156C63.1875 6.5651 63.0964 6.28906 62.9766 6.02344C62.862 5.7526 62.7109 5.51302 62.5234 5.30469C62.3411 5.09115 62.1146 4.92188 61.8438 4.79688C61.5781 4.67188 61.263 4.60938 60.8984 4.60938C60.5026 4.60938 60.1615 4.69271 59.875 4.85938C59.5938 5.02083 59.362 5.24479 59.1797 5.53125C58.9974 5.8125 58.862 6.14062 58.7734 6.51562C58.6901 6.88542 58.6484 7.28125 58.6484 7.70312ZM70.5469 0H72V10.3594L71.875 12H70.5469V0ZM77.7109 7.70312V7.86719C77.7109 8.48177 77.638 9.05208 77.4922 9.57812C77.3464 10.099 77.1328 10.5521 76.8516 10.9375C76.5703 11.3229 76.2266 11.6224 75.8203 11.8359C75.4141 12.0495 74.9479 12.1562 74.4219 12.1562C73.8854 12.1562 73.4141 12.0651 73.0078 11.8828C72.6068 11.6953 72.2682 11.4271 71.9922 11.0781C71.7161 10.7292 71.4948 10.3073 71.3281 9.8125C71.1667 9.31771 71.0547 8.76042 70.9922 8.14062V7.42188C71.0547 6.79688 71.1667 6.23698 71.3281 5.74219C71.4948 5.2474 71.7161 4.82552 71.9922 4.47656C72.2682 4.1224 72.6068 3.85417 73.0078 3.67188C73.4089 3.48438 73.875 3.39062 74.4062 3.39062C74.9375 3.39062 75.4089 3.49479 75.8203 3.70312C76.2318 3.90625 76.5755 4.19792 76.8516 4.57812C77.1328 4.95833 77.3464 5.41406 77.4922 5.94531C77.638 6.47135 77.7109 7.05729 77.7109 7.70312ZM76.2578 7.86719V7.70312C76.2578 7.28125 76.2188 6.88542 76.1406 6.51562C76.0625 6.14062 75.9375 5.8125 75.7656 5.53125C75.5938 5.24479 75.3672 5.02083 75.0859 4.85938C74.8047 4.69271 74.4583 4.60938 74.0469 4.60938C73.6823 4.60938 73.3646 4.67188 73.0938 4.79688C72.8281 4.92188 72.6016 5.09115 72.4141 5.30469C72.2266 5.51302 72.0729 5.7526 71.9531 6.02344C71.8385 6.28906 71.7526 6.5651 71.6953 6.85156V8.73438C71.7786 9.09896 71.9141 9.45052 72.1016 9.78906C72.2943 10.1224 72.5495 10.3958 72.8672 10.6094C73.1901 10.8229 73.5885 10.9297 74.0625 10.9297C74.4531 10.9297 74.7865 10.8516 75.0625 10.6953C75.3438 10.5339 75.5703 10.3125 75.7422 10.0312C75.9193 9.75 76.0495 9.42448 76.1328 9.05469C76.2161 8.6849 76.2578 8.28906 76.2578 7.86719ZM81.8203 11.125L84.1719 3.54688H85.7188L82.3281 13.3047C82.25 13.513 82.1458 13.737 82.0156 13.9766C81.8906 14.2214 81.7292 14.4531 81.5312 14.6719C81.3333 14.8906 81.0938 15.0677 80.8125 15.2031C80.5365 15.3438 80.2057 15.4141 79.8203 15.4141C79.7057 15.4141 79.5599 15.3984 79.3828 15.3672C79.2057 15.3359 79.0807 15.3099 79.0078 15.2891L79 14.1172C79.0417 14.1224 79.1068 14.1276 79.1953 14.1328C79.2891 14.1432 79.3542 14.1484 79.3906 14.1484C79.7188 14.1484 79.9974 14.1042 80.2266 14.0156C80.4557 13.9323 80.6484 13.7891 80.8047 13.5859C80.9661 13.388 81.1042 13.1146 81.2188 12.7656L81.8203 11.125ZM80.0938 3.54688L82.2891 10.1094L82.6641 11.6328L81.625 12.1641L78.5156 3.54688H80.0938Z" fill="white"/>
</svg>
