<svg width="82" height="16" viewBox="0 0 82 16" fill="none" xmlns="http://www.w3.org/2000/svg">
<path d="M4.51562 7.53906H1.47656V6.3125H4.51562C5.10417 6.3125 5.58073 6.21875 5.94531 6.03125C6.3099 5.84375 6.57552 5.58333 6.74219 5.25C6.91406 4.91667 7 4.53646 7 4.10938C7 3.71875 6.91406 3.35156 6.74219 3.00781C6.57552 2.66406 6.3099 2.38802 5.94531 2.17969C5.58073 1.96615 5.10417 1.85938 4.51562 1.85938H1.82812V12H0.320312V0.625H4.51562C5.375 0.625 6.10156 0.773438 6.69531 1.07031C7.28906 1.36719 7.73958 1.77865 8.04688 2.30469C8.35417 2.82552 8.50781 3.42188 8.50781 4.09375C8.50781 4.82292 8.35417 5.44531 8.04688 5.96094C7.73958 6.47656 7.28906 6.86979 6.69531 7.14062C6.10156 7.40625 5.375 7.53906 4.51562 7.53906ZM9.70312 7.86719V7.6875C9.70312 7.07812 9.79167 6.51302 9.96875 5.99219C10.1458 5.46615 10.401 5.01042 10.7344 4.625C11.0677 4.23438 11.4714 3.93229 11.9453 3.71875C12.4193 3.5 12.9505 3.39062 13.5391 3.39062C14.1328 3.39062 14.6667 3.5 15.1406 3.71875C15.6198 3.93229 16.026 4.23438 16.3594 4.625C16.6979 5.01042 16.9557 5.46615 17.1328 5.99219C17.3099 6.51302 17.3984 7.07812 17.3984 7.6875V7.86719C17.3984 8.47656 17.3099 9.04167 17.1328 9.5625C16.9557 10.0833 16.6979 10.5391 16.3594 10.9297C16.026 11.3151 15.6224 11.6172 15.1484 11.8359C14.6797 12.0495 14.1484 12.1562 13.5547 12.1562C12.9609 12.1562 12.4271 12.0495 11.9531 11.8359C11.4792 11.6172 11.0729 11.3151 10.7344 10.9297C10.401 10.5391 10.1458 10.0833 9.96875 9.5625C9.79167 9.04167 9.70312 8.47656 9.70312 7.86719ZM11.1484 7.6875V7.86719C11.1484 8.28906 11.1979 8.6875 11.2969 9.0625C11.3958 9.43229 11.5443 9.76042 11.7422 10.0469C11.9453 10.3333 12.1979 10.5599 12.5 10.7266C12.8021 10.888 13.1536 10.9688 13.5547 10.9688C13.9505 10.9688 14.2969 10.888 14.5938 10.7266C14.8958 10.5599 15.1458 10.3333 15.3438 10.0469C15.5417 9.76042 15.6901 9.43229 15.7891 9.0625C15.8932 8.6875 15.9453 8.28906 15.9453 7.86719V7.6875C15.9453 7.27083 15.8932 6.8776 15.7891 6.50781C15.6901 6.13281 15.5391 5.80208 15.3359 5.51562C15.138 5.22396 14.888 4.99479 14.5859 4.82812C14.2891 4.66146 13.9401 4.57812 13.5391 4.57812C13.1432 4.57812 12.7943 4.66146 12.4922 4.82812C12.1953 4.99479 11.9453 5.22396 11.7422 5.51562C11.5443 5.80208 11.3958 6.13281 11.2969 6.50781C11.1979 6.8776 11.1484 7.27083 11.1484 7.6875ZM21.3516 10.5L23.5234 3.54688H24.4766L24.2891 4.92969L22.0781 12H21.1484L21.3516 10.5ZM19.8906 3.54688L21.7422 10.5781L21.875 12H20.8984L18.4453 3.54688H19.8906ZM26.5547 10.5234L28.3203 3.54688H29.7578L27.3047 12H26.3359L26.5547 10.5234ZM24.6875 3.54688L26.8125 10.3828L27.0547 12H26.1328L23.8594 4.91406L23.6719 3.54688H24.6875ZM34.75 12.1562C34.1615 12.1562 33.6276 12.0573 33.1484 11.8594C32.6745 11.6562 32.2656 11.3724 31.9219 11.0078C31.5833 10.6432 31.3229 10.2109 31.1406 9.71094C30.9583 9.21094 30.8672 8.66406 30.8672 8.07031V7.74219C30.8672 7.05469 30.9688 6.44271 31.1719 5.90625C31.375 5.36458 31.651 4.90625 32 4.53125C32.349 4.15625 32.7448 3.8724 33.1875 3.67969C33.6302 3.48698 34.0885 3.39062 34.5625 3.39062C35.1667 3.39062 35.6875 3.49479 36.125 3.70312C36.5677 3.91146 36.9297 4.20312 37.2109 4.57812C37.4922 4.94792 37.7005 5.38542 37.8359 5.89062C37.9714 6.39062 38.0391 6.9375 38.0391 7.53125V8.17969H31.7266V7H36.5938V6.89062C36.5729 6.51562 36.4948 6.15104 36.3594 5.79688C36.2292 5.44271 36.0208 5.15104 35.7344 4.92188C35.4479 4.69271 35.0573 4.57812 34.5625 4.57812C34.2344 4.57812 33.9323 4.64844 33.6562 4.78906C33.3802 4.92448 33.1432 5.1276 32.9453 5.39844C32.7474 5.66927 32.5938 6 32.4844 6.39062C32.375 6.78125 32.3203 7.23177 32.3203 7.74219V8.07031C32.3203 8.47135 32.375 8.84896 32.4844 9.20312C32.599 9.55208 32.763 9.85938 32.9766 10.125C33.1953 10.3906 33.4583 10.599 33.7656 10.75C34.0781 10.901 34.4323 10.9766 34.8281 10.9766C35.3385 10.9766 35.7708 10.8724 36.125 10.6641C36.4792 10.4557 36.7891 10.1771 37.0547 9.82812L37.9297 10.5234C37.7474 10.7995 37.5156 11.0625 37.2344 11.3125C36.9531 11.5625 36.6068 11.7656 36.1953 11.9219C35.7891 12.0781 35.3073 12.1562 34.75 12.1562ZM41.1719 4.875V12H39.7266V3.54688H41.1328L41.1719 4.875ZM43.8125 3.5L43.8047 4.84375C43.6849 4.81771 43.5703 4.80208 43.4609 4.79688C43.3568 4.78646 43.237 4.78125 43.1016 4.78125C42.7682 4.78125 42.474 4.83333 42.2188 4.9375C41.9635 5.04167 41.7474 5.1875 41.5703 5.375C41.3932 5.5625 41.2526 5.78646 41.1484 6.04688C41.0495 6.30208 40.9844 6.58333 40.9531 6.89062L40.5469 7.125C40.5469 6.61458 40.5964 6.13542 40.6953 5.6875C40.7995 5.23958 40.9583 4.84375 41.1719 4.5C41.3854 4.15104 41.6562 3.88021 41.9844 3.6875C42.3177 3.48958 42.7135 3.39062 43.1719 3.39062C43.276 3.39062 43.3958 3.40365 43.5312 3.42969C43.6667 3.45052 43.7604 3.47396 43.8125 3.5ZM48.5 12.1562C47.9115 12.1562 47.3776 12.0573 46.8984 11.8594C46.4245 11.6562 46.0156 11.3724 45.6719 11.0078C45.3333 10.6432 45.0729 10.2109 44.8906 9.71094C44.7083 9.21094 44.6172 8.66406 44.6172 8.07031V7.74219C44.6172 7.05469 44.7188 6.44271 44.9219 5.90625C45.125 5.36458 45.401 4.90625 45.75 4.53125C46.099 4.15625 46.4948 3.8724 46.9375 3.67969C47.3802 3.48698 47.8385 3.39062 48.3125 3.39062C48.9167 3.39062 49.4375 3.49479 49.875 3.70312C50.3177 3.91146 50.6797 4.20312 50.9609 4.57812C51.2422 4.94792 51.4505 5.38542 51.5859 5.89062C51.7214 6.39062 51.7891 6.9375 51.7891 7.53125V8.17969H45.4766V7H50.3438V6.89062C50.3229 6.51562 50.2448 6.15104 50.1094 5.79688C49.9792 5.44271 49.7708 5.15104 49.4844 4.92188C49.1979 4.69271 48.8073 4.57812 48.3125 4.57812C47.9844 4.57812 47.6823 4.64844 47.4062 4.78906C47.1302 4.92448 46.8932 5.1276 46.6953 5.39844C46.4974 5.66927 46.3438 6 46.2344 6.39062C46.125 6.78125 46.0703 7.23177 46.0703 7.74219V8.07031C46.0703 8.47135 46.125 8.84896 46.2344 9.20312C46.349 9.55208 46.513 9.85938 46.7266 10.125C46.9453 10.3906 47.2083 10.599 47.5156 10.75C47.8281 10.901 48.1823 10.9766 48.5781 10.9766C49.0885 10.9766 49.5208 10.8724 49.875 10.6641C50.2292 10.4557 50.5391 10.1771 50.8047 9.82812L51.6797 10.5234C51.4974 10.7995 51.2656 11.0625 50.9844 11.3125C50.7031 11.5625 50.3568 11.7656 49.9453 11.9219C49.5391 12.0781 49.0573 12.1562 48.5 12.1562ZM58.8047 10.3594V0H60.2578V12H58.9297L58.8047 10.3594ZM53.1172 7.86719V7.70312C53.1172 7.05729 53.1953 6.47135 53.3516 5.94531C53.513 5.41406 53.7396 4.95833 54.0312 4.57812C54.3281 4.19792 54.6797 3.90625 55.0859 3.70312C55.4974 3.49479 55.9557 3.39062 56.4609 3.39062C56.9922 3.39062 57.4557 3.48438 57.8516 3.67188C58.2526 3.85417 58.5911 4.1224 58.8672 4.47656C59.1484 4.82552 59.3698 5.2474 59.5312 5.74219C59.6927 6.23698 59.8047 6.79688 59.8672 7.42188V8.14062C59.8099 8.76042 59.6979 9.31771 59.5312 9.8125C59.3698 10.3073 59.1484 10.7292 58.8672 11.0781C58.5911 11.4271 58.2526 11.6953 57.8516 11.8828C57.4505 12.0651 56.9818 12.1562 56.4453 12.1562C55.9505 12.1562 55.4974 12.0495 55.0859 11.8359C54.6797 11.6224 54.3281 11.3229 54.0312 10.9375C53.7396 10.5521 53.513 10.099 53.3516 9.57812C53.1953 9.05208 53.1172 8.48177 53.1172 7.86719ZM54.5703 7.70312V7.86719C54.5703 8.28906 54.612 8.6849 54.6953 9.05469C54.7839 9.42448 54.9193 9.75 55.1016 10.0312C55.2839 10.3125 55.5156 10.5339 55.7969 10.6953C56.0781 10.8516 56.4141 10.9297 56.8047 10.9297C57.2839 10.9297 57.6771 10.8281 57.9844 10.625C58.2969 10.4219 58.5469 10.1536 58.7344 9.82031C58.9219 9.48698 59.0677 9.125 59.1719 8.73438V6.85156C59.1094 6.5651 59.0182 6.28906 58.8984 6.02344C58.7839 5.7526 58.6328 5.51302 58.4453 5.30469C58.263 5.09115 58.0365 4.92188 57.7656 4.79688C57.5 4.67188 57.1849 4.60938 56.8203 4.60938C56.4245 4.60938 56.0833 4.69271 55.7969 4.85938C55.5156 5.02083 55.2839 5.24479 55.1016 5.53125C54.9193 5.8125 54.7839 6.14062 54.6953 6.51562C54.612 6.88542 54.5703 7.28125 54.5703 7.70312ZM66.4688 0H67.9219V10.3594L67.7969 12H66.4688V0ZM73.6328 7.70312V7.86719C73.6328 8.48177 73.5599 9.05208 73.4141 9.57812C73.2682 10.099 73.0547 10.5521 72.7734 10.9375C72.4922 11.3229 72.1484 11.6224 71.7422 11.8359C71.3359 12.0495 70.8698 12.1562 70.3438 12.1562C69.8073 12.1562 69.3359 12.0651 68.9297 11.8828C68.5286 11.6953 68.1901 11.4271 67.9141 11.0781C67.638 10.7292 67.4167 10.3073 67.25 9.8125C67.0885 9.31771 66.9766 8.76042 66.9141 8.14062V7.42188C66.9766 6.79688 67.0885 6.23698 67.25 5.74219C67.4167 5.2474 67.638 4.82552 67.9141 4.47656C68.1901 4.1224 68.5286 3.85417 68.9297 3.67188C69.3307 3.48438 69.7969 3.39062 70.3281 3.39062C70.8594 3.39062 71.3307 3.49479 71.7422 3.70312C72.1536 3.90625 72.4974 4.19792 72.7734 4.57812C73.0547 4.95833 73.2682 5.41406 73.4141 5.94531C73.5599 6.47135 73.6328 7.05729 73.6328 7.70312ZM72.1797 7.86719V7.70312C72.1797 7.28125 72.1406 6.88542 72.0625 6.51562C71.9844 6.14062 71.8594 5.8125 71.6875 5.53125C71.5156 5.24479 71.2891 5.02083 71.0078 4.85938C70.7266 4.69271 70.3802 4.60938 69.9688 4.60938C69.6042 4.60938 69.2865 4.67188 69.0156 4.79688C68.75 4.92188 68.5234 5.09115 68.3359 5.30469C68.1484 5.51302 67.9948 5.7526 67.875 6.02344C67.7604 6.28906 67.6745 6.5651 67.6172 6.85156V8.73438C67.7005 9.09896 67.8359 9.45052 68.0234 9.78906C68.2161 10.1224 68.4714 10.3958 68.7891 10.6094C69.112 10.8229 69.5104 10.9297 69.9844 10.9297C70.375 10.9297 70.7083 10.8516 70.9844 10.6953C71.2656 10.5339 71.4922 10.3125 71.6641 10.0312C71.8411 9.75 71.9714 9.42448 72.0547 9.05469C72.138 8.6849 72.1797 8.28906 72.1797 7.86719ZM77.7422 11.125L80.0938 3.54688H81.6406L78.25 13.3047C78.1719 13.513 78.0677 13.737 77.9375 13.9766C77.8125 14.2214 77.651 14.4531 77.4531 14.6719C77.2552 14.8906 77.0156 15.0677 76.7344 15.2031C76.4583 15.3438 76.1276 15.4141 75.7422 15.4141C75.6276 15.4141 75.4818 15.3984 75.3047 15.3672C75.1276 15.3359 75.0026 15.3099 74.9297 15.2891L74.9219 14.1172C74.9635 14.1224 75.0286 14.1276 75.1172 14.1328C75.2109 14.1432 75.276 14.1484 75.3125 14.1484C75.6406 14.1484 75.9193 14.1042 76.1484 14.0156C76.3776 13.9323 76.5703 13.7891 76.7266 13.5859C76.888 13.388 77.026 13.1146 77.1406 12.7656L77.7422 11.125ZM76.0156 3.54688L78.2109 10.1094L78.5859 11.6328L77.5469 12.1641L74.4375 3.54688H76.0156Z" fill="white"/>
</svg>
